<svg width="50" height="64" viewBox="0 0 50 64" fill="none" xmlns="http://www.w3.org/2000/svg">
<path d="M48.4995 28.0034H45.4995C45.2235 28.0034 44.9995 27.7794 44.9995 27.5034L44.9785 7.52537C44.9785 7.48337 44.9835 7.44237 44.9945 7.40238L46.5155 1.37696C46.5705 1.15598 46.7705 1 46.9995 1C46.9995 1 46.9995 1 47.0005 1C47.2295 1 47.4295 1.15598 47.4845 1.37896L48.9845 7.38438C48.9945 7.42338 48.9995 7.46437 48.9995 7.50537V27.5034C48.9995 27.7794 48.7755 28.0034 48.4995 28.0034ZM45.9985 27.0035H47.9995V7.56736L46.9965 3.55375L45.9785 7.58736L45.9985 27.0035Z" stroke="white"/>
<path d="M42.4998 57.0006H31.4998C31.2978 57.0006 31.1148 56.8786 31.0378 56.6916C30.9608 56.5046 31.0038 56.2896 31.1458 56.1467L42.1458 45.1477C42.2898 45.0047 42.5038 44.9607 42.6908 45.0397C42.8778 45.1167 42.9998 45.2997 42.9998 45.5017V56.5006C42.9998 56.7766 42.7758 57.0006 42.4998 57.0006ZM32.7068 56.0007H41.9998V46.7086L32.7068 56.0007Z" stroke="white"/>
<path d="M48.4994 63H15.4994C15.2954 63 15.1124 62.876 15.0364 62.688C14.9604 62.5001 15.0054 62.2831 15.1514 62.1411L48.1514 30.1042C48.2964 29.9652 48.5084 29.9232 48.6944 30.0022C48.8794 30.0812 48.9994 30.2632 48.9994 30.4632V62.5001C48.9994 62.776 48.7754 63 48.4994 63ZM16.7324 62.0001H47.9994V31.646L16.7324 62.0001Z" stroke="white"/>
<path d="M42.5 63.0003C42.224 63.0003 42 62.7763 42 62.5003V60.5003C42 60.2243 42.224 60.0003 42.5 60.0003C42.776 60.0003 43 60.2243 43 60.5003V62.5003C43 62.7763 42.776 63.0003 42.5 63.0003Z" stroke="white"/>
<path d="M34.5 63.0003C34.224 63.0003 34 62.7763 34 62.5003V60.5003C34 60.2243 34.224 60.0003 34.5 60.0003C34.776 60.0003 35 60.2243 35 60.5003V62.5003C35 62.7763 34.776 63.0003 34.5 63.0003Z" stroke="white"/>
<path d="M24.5 63.0003C24.224 63.0003 24 62.7763 24 62.5003V60.5003C24 60.2243 24.224 60.0003 24.5 60.0003C24.776 60.0003 25 60.2243 25 60.5003V62.5003C25 62.7763 24.776 63.0003 24.5 63.0003Z" stroke="white"/>
<path d="M48.5 57.0006H46.5C46.224 57.0006 46 56.7766 46 56.5006C46 56.2246 46.224 56.0006 46.5 56.0006H48.5C48.776 56.0006 49 56.2246 49 56.5006C49 56.7766 48.776 57.0006 48.5 57.0006Z" stroke="white"/>
<path d="M48.5 48.0015H46.5C46.224 48.0015 46 47.7775 46 47.5015C46 47.2255 46.224 47.0015 46.5 47.0015H48.5C48.776 47.0015 49 47.2255 49 47.5015C49 47.7775 48.776 48.0015 48.5 48.0015Z" stroke="white"/>
<path d="M48.5 37.0026H46.5C46.224 37.0026 46 36.7786 46 36.5026C46 36.2266 46.224 36.0026 46.5 36.0026H48.5C48.776 36.0026 49 36.2266 49 36.5026C49 36.7786 48.776 37.0026 48.5 37.0026Z" stroke="white"/>
<path d="M38.5 63.0004C38.224 63.0004 38 62.7764 38 62.5004V59.5004C38 59.2244 38.224 59.0004 38.5 59.0004C38.776 59.0004 39 59.2244 39 59.5004V62.5004C39 62.7764 38.776 63.0004 38.5 63.0004Z" stroke="white"/>
<path d="M30.5 63.0004C30.224 63.0004 30 62.7764 30 62.5004V59.5004C30 59.2244 30.224 59.0004 30.5 59.0004C30.776 59.0004 31 59.2244 31 59.5004V62.5004C31 62.7764 30.776 63.0004 30.5 63.0004Z" stroke="white"/>
<path d="M48.5 53.001H45.5C45.224 53.001 45 52.777 45 52.501C45 52.225 45.224 52.001 45.5 52.001H48.5C48.776 52.001 49 52.225 49 52.501C49 52.777 48.776 53.001 48.5 53.001Z" stroke="white"/>
<path d="M48.5 43.002H45.5C45.224 43.002 45 42.778 45 42.502C45 42.226 45.224 42.002 45.5 42.002H48.5C48.776 42.002 49 42.226 49 42.502C49 42.778 48.776 43.002 48.5 43.002Z" stroke="white"/>
<path d="M35.7165 38.0025H18.7695C18.4935 38.0025 18.2695 37.7785 18.2695 37.5025C18.2695 37.2265 18.4935 37.0025 18.7695 37.0025H35.7165C35.9925 37.0025 36.2165 37.2265 36.2165 37.5025C36.2165 37.7785 35.9925 38.0025 35.7165 38.0025Z" stroke="white"/>
<path d="M33.5 32.0031H32.5C32.224 32.0031 32 31.7791 32 31.5031C32 31.2271 32.224 31.0031 32.5 31.0031H33.5C33.776 31.0031 34 31.2271 34 31.5031C34 31.7791 33.776 32.0031 33.5 32.0031Z" stroke="white"/>
<path d="M29.5 32.0031H26.5C26.224 32.0031 26 31.7791 26 31.5031C26 31.2271 26.224 31.0031 26.5 31.0031H29.5C29.776 31.0031 30 31.2271 30 31.5031C30 31.7791 29.776 32.0031 29.5 32.0031Z" stroke="white"/>
<path d="M23.5 32.0031H20.5C20.224 32.0031 20 31.7791 20 31.5031C20 31.2271 20.224 31.0031 20.5 31.0031H23.5C23.776 31.0031 24 31.2271 24 31.5031C24 31.7791 23.776 32.0031 23.5 32.0031Z" stroke="white"/>
<path d="M18.5 38.0034C17.122 38.0034 16 36.8814 16 35.5034V30.5034C16 29.1254 17.122 28.0034 18.5 28.0034C19.878 28.0034 21 29.1254 21 30.5034V35.5034C21 36.8814 19.878 38.0034 18.5 38.0034ZM18.5 29.0034C17.673 29.0034 17 29.6764 17 30.5034V35.5034C17 36.3304 17.673 37.0034 18.5 37.0034C19.327 37.0034 20 36.3304 20 35.5034V30.5034C20 29.6764 19.327 29.0034 18.5 29.0034Z" stroke="white"/>
<path d="M35.5 38.0034C34.121 38.0034 33 36.8814 33 35.5034V30.5034C33 29.1254 34.121 28.0034 35.5 28.0034C36.879 28.0034 38 29.1254 38 30.5034V35.5034C38 36.8814 36.879 38.0034 35.5 38.0034ZM35.5 29.0034C34.673 29.0034 34 29.6764 34 30.5034V35.5034C34 36.3304 34.673 37.0034 35.5 37.0034C36.327 37.0034 37 36.3304 37 35.5034V30.5034C37 29.6764 36.327 29.0034 35.5 29.0034Z" stroke="white"/>
<path d="M34.9994 29.0038C34.8164 29.0038 34.6404 28.9028 34.5524 28.7278C33.0914 25.8078 30.2064 23.9938 27.0244 23.9938C23.8404 23.9938 20.9564 25.8078 19.4964 28.7278C19.3724 28.9758 19.0714 29.0748 18.8254 28.9518C18.5784 28.8278 18.4784 28.5278 18.6014 28.2808C20.2324 25.0198 23.4594 22.9938 27.0244 22.9938C30.5884 22.9938 33.8164 25.0198 35.4474 28.2808C35.5704 28.5278 35.4704 28.8278 35.2234 28.9518C35.1514 28.9868 35.0744 29.0038 34.9994 29.0038Z" stroke="white"/>
<path d="M13.4999 26.004H7.49991C7.32691 26.004 7.16591 25.914 7.07491 25.767C6.98391 25.62 6.97491 25.435 7.05291 25.281L9.05291 21.281C9.13791 21.111 9.31091 21.004 9.49991 21.004H11.4999C11.6889 21.004 11.8619 21.111 11.9469 21.28L13.9469 25.28C14.0249 25.435 14.0159 25.619 13.9249 25.766C13.8339 25.913 13.6729 26.004 13.4999 26.004ZM8.30891 25.004H12.6909L11.1909 22.004H9.80891L8.30891 25.004Z" stroke="white"/>
<path d="M10.5 31.0036C10.224 31.0036 10 30.7796 10 30.5036V25.5036C10 25.2276 10.224 25.0036 10.5 25.0036C10.776 25.0036 11 25.2276 11 25.5036V30.5036C11 30.7796 10.776 31.0036 10.5 31.0036Z" stroke="white"/>
<path d="M14.5 38.0032H6.5C6.224 38.0032 6 37.7792 6 37.5032V30.5032C6 30.2272 6.224 30.0032 6.5 30.0032H14.5C14.776 30.0032 15 30.2272 15 30.5032V37.5032C15 37.7792 14.776 38.0032 14.5 38.0032ZM7 37.0032H14V31.0032H7V37.0032Z" stroke="white"/>
<path d="M21.683 57.0006H1.5C1.224 57.0006 1 56.7766 1 56.5006V1.50593C1 1.22996 1.224 1.00598 1.5 1.00598H33.5C33.776 1.00598 34 1.22996 34 1.50593V10.0051H42.5C42.776 10.0051 43 10.2291 43 10.5051L43.005 36.2846C43.005 36.5605 42.781 36.7845 42.505 36.7845C42.229 36.7845 42.005 36.5605 42.005 36.2846L42 11.005H33.5C33.224 11.005 33 10.781 33 10.5051V2.00588H2V56.0006H21.683C21.959 56.0006 22.183 56.2246 22.183 56.5006C22.183 56.7766 21.959 57.0006 21.683 57.0006Z" stroke="white"/>
<path d="M48.5 8.00598H45.5C45.224 8.00598 45 7.78198 45 7.50598C45 7.22998 45.224 7.00598 45.5 7.00598H48.5C48.776 7.00598 49 7.22998 49 7.50598C49 7.78198 48.776 8.00598 48.5 8.00598Z" stroke="white"/>
<path d="M48.5 23.0039H45.5C45.224 23.0039 45 22.7799 45 22.5039C45 22.2279 45.224 22.0039 45.5 22.0039H48.5C48.776 22.0039 49 22.2279 49 22.5039C49 22.7799 48.776 23.0039 48.5 23.0039Z" stroke="white"/>
<path d="M42.5002 11.006C42.3722 11.006 42.2442 10.957 42.1462 10.86L33.1462 1.85996C32.9513 1.66496 32.9513 1.34796 33.1462 1.15296C33.3412 0.957964 33.6583 0.957964 33.8533 1.15296L42.8533 10.153C43.0483 10.348 43.0483 10.665 42.8533 10.86C42.7563 10.957 42.6282 11.006 42.5002 11.006Z" stroke="white"/>
</svg>
