<svg width="48" height="62" viewBox="0 0 48 62" fill="none" xmlns="http://www.w3.org/2000/svg">
<path d="M47.0744 40.4363C46.0146 34.1433 41.7501 28.3472 35.3685 24.5052V20.1842C35.3685 12.7052 31.6889 5.67425 25.0093 0.38525L24.8931 0.29325C24.3992 -0.09775 23.6008 -0.09775 23.1069 0.29325L22.9907 0.38525C16.3111 5.67325 12.6315 12.7052 12.6315 20.1842V24.5052C6.24991 28.3472 1.98544 34.1433 0.92564 40.4363L0.0111035 45.8683C-0.0684764 46.3423 0.286476 46.7953 0.858692 46.9483C0.992589 46.9833 1.12901 47.0003 1.26291 47.0003C1.70628 47.0003 2.13071 46.8143 2.35934 46.4963L3.65156 44.7053C5.53622 42.0953 8.90257 40.3873 12.6315 40.0663V41.0003C12.6315 41.5522 13.1974 42.0003 13.8946 42.0003H15.1578V45.0003C15.1578 45.5522 15.7237 46.0003 16.421 46.0003H22.7368V50.0003H25.2632V46.0003H31.579C32.2763 46.0003 32.8422 45.5522 32.8422 45.0003V42.0003H34.1054C34.8026 42.0003 35.3685 41.5522 35.3685 41.0003V40.0673C39.0974 40.3873 42.4638 42.0963 44.3484 44.7063L45.6407 46.4973C45.8706 46.8143 46.2937 47.0003 46.7371 47.0003C46.871 47.0003 47.0074 46.9832 47.1413 46.9473C47.7135 46.7943 48.0685 46.3423 47.9889 45.8673L47.0744 40.4363ZM24 2.43525C26.6539 4.68125 28.7432 7.24025 30.2274 10.0002H17.7726C19.2568 7.24025 21.3461 4.68125 24 2.43525ZM3.2524 41.7513L3.42925 40.7003C4.3122 35.4543 7.6394 30.5972 12.6315 27.1092V38.0533C9.01499 38.3093 5.66001 39.6403 3.2524 41.7513ZM30.3159 44.0003H17.6841V42.0003H30.3159V44.0003ZM32.8422 40.0003H15.1578V20.1842C15.1578 17.3603 15.7288 14.6062 16.8163 12.0002H31.1849C32.2712 14.6062 32.8422 17.3603 32.8422 20.1842V40.0003ZM35.3685 38.0543V27.1092C40.3606 30.5982 43.6865 35.4553 44.5708 40.7003L44.7476 41.7513C42.34 39.6403 38.985 38.3093 35.3685 38.0543Z" fill="white"/>
<path d="M23.9999 18.0002C19.8201 18.0002 16.4209 20.6912 16.4209 24.0002C16.4209 27.3092 19.8201 30.0002 23.9999 30.0002C28.1798 30.0002 31.579 27.3092 31.579 24.0002C31.579 20.6912 28.1798 18.0002 23.9999 18.0002ZM23.9999 28.0002C21.2134 28.0002 18.9472 26.2062 18.9472 24.0002C18.9472 21.7942 21.2134 20.0002 23.9999 20.0002C26.7865 20.0002 29.0526 21.7942 29.0526 24.0002C29.0526 26.2062 26.7865 28.0002 23.9999 28.0002Z" fill="white"/>
<path d="M30.1036 47.4453L28.0016 48.5543L29.3444 50.1493C29.9798 50.9043 30.3158 51.7823 30.3158 52.6893C30.3158 53.9123 29.7145 55.0623 28.6219 55.9273L23.9999 59.5863L19.378 55.9273C18.2853 55.0623 17.6841 53.9123 17.6841 52.6893C17.6841 51.7823 18.0201 50.9043 18.6554 50.1493L19.9982 48.5543L17.8963 47.4453L16.5535 49.0403C15.6402 50.1243 15.1577 51.3863 15.1577 52.6893C15.1577 54.4463 16.0217 56.0993 17.5918 57.3413L23.1069 61.7073C23.3532 61.9023 23.6765 62.0003 23.9999 62.0003C24.3233 62.0003 24.6467 61.9023 24.893 61.7073L30.408 57.3413C31.9781 56.0993 32.8421 54.4463 32.8421 52.6893C32.8421 51.3863 32.3596 50.1243 31.4463 49.0403L30.1036 47.4453Z" fill="white"/>
</svg>
