<svg width="48" height="62" viewBox="0 0 48 62" fill="none" xmlns="http://www.w3.org/2000/svg">
<path d="M17.3793 13.35L16.8793 13.3494C16.8782 14.2974 16.4961 15.2076 15.8147 15.88C15.1331 16.5526 14.2076 16.9322 13.2408 16.9333H11.2586V16.3H13.2414H13.242C13.8569 16.2993 14.4572 16.1108 14.9605 15.7597C15.4639 15.4085 15.846 14.9115 16.0531 14.336L16.294 13.6667H15.5826H4.96552C3.95708 13.6667 2.98863 14.0619 2.27355 14.7676C1.55825 15.4734 1.15517 16.4322 1.15517 17.4333V22.3333C1.15517 22.6847 1.29668 23.0203 1.54637 23.2667C1.79584 23.5129 2.13279 23.65 2.48276 23.65H3.31034H3.81034V23.15V19.5667H4.46552V26.7333H3.81034V24.7833V24.2833H3.31034H2.48276C1.95477 24.2833 1.44973 24.0763 1.07838 23.7099C0.707261 23.3436 0.5 22.8483 0.5 22.3333V17.4337C0.501389 16.3854 0.882607 15.3712 1.57632 14.5745C2.27025 13.7775 3.23131 13.2505 4.28652 13.0906L5.15105 12.9595L4.59963 12.2809C4.09194 11.6561 3.81421 10.8811 3.81035 10.0822C3.81065 9.1344 4.19226 8.22414 4.87351 7.55187C5.55526 6.87912 6.48131 6.5 7.44828 6.5C8.41524 6.5 9.34129 6.87912 10.023 7.55187C10.7044 8.2242 11.086 9.13457 11.0862 10.0825C11.0834 10.8572 10.8225 11.6104 10.3428 12.2259L9.71341 13.0333H10.7371H16.5517C16.6407 13.0333 16.7248 13.0683 16.7857 13.1284C16.8464 13.1883 16.8793 13.2682 16.8793 13.35H17.3793ZM17.3793 13.35C17.3793 13.1334 17.2921 12.9257 17.1369 12.7725C16.9817 12.6194 16.7712 12.5333 16.5517 12.5333H11.3511M17.3793 13.35C17.378 14.4326 16.9416 15.4704 16.1659 16.2359C15.3902 17.0014 14.3384 17.432 13.2414 17.4333L11.3511 12.5333M11.3511 12.5333C11.2824 12.6384 11.2092 12.741 11.1315 12.8407L10.7371 12.5333V12.0333H11.0702M11.3511 12.5333L11.0702 12.0333M11.0702 12.0333C11.4048 11.4396 11.5839 10.7691 11.5862 10.0833C11.5862 9.00037 11.1502 7.96175 10.3742 7.19598C9.59822 6.43021 8.54572 6 7.44828 6C6.35083 6 5.29833 6.43021 4.52232 7.19598C3.7463 7.96175 3.31034 9.00037 3.31034 10.0833L11.0702 12.0333ZM9.10286 7.62881C8.61253 7.3055 8.03674 7.13333 7.44828 7.13333C6.65933 7.13333 5.90137 7.44254 5.3415 7.99503C4.78141 8.54773 4.46552 9.29879 4.46552 10.0833C4.46552 10.6683 4.64133 11.2395 4.96992 11.7248C5.29846 12.21 5.76472 12.5872 6.30898 12.8097C6.85319 13.0321 7.45165 13.0902 8.02894 12.9769C8.60628 12.8636 9.13748 12.5837 9.55505 12.1716C9.97269 11.7595 10.2579 11.2336 10.3735 10.6601C10.4891 10.0865 10.4297 9.4921 10.2031 8.95224C9.9765 8.41245 9.59326 7.95216 9.10286 7.62881Z" stroke="#122025"/>
<path d="M18.7067 42.7458L18.7067 42.75L18.7067 49.2833C18.7067 49.3652 18.7396 49.445 18.8003 49.5049C18.8612 49.5651 18.9453 49.6 19.0343 49.6H28.9653C29.0543 49.6 29.1384 49.5651 29.1993 49.5049C29.26 49.445 29.2929 49.3652 29.2929 49.2833V42.7981C29.29 42.7774 29.2879 42.7532 29.2879 42.7263C29.2879 42.7 29.2899 42.6768 29.2925 42.6573C29.293 42.6534 29.2936 42.6495 29.2942 42.6458C29.3152 41.968 29.4988 41.3048 29.8298 40.7109C30.1676 40.105 30.6485 39.5894 31.231 39.2078C32.9299 38.0528 34.3186 36.5084 35.2781 34.7079C36.2383 32.9061 36.7403 30.9016 36.7412 28.8667L18.7067 42.7458ZM18.7067 42.7458C18.7008 42.0445 18.5211 41.3555 18.1835 40.7391C17.8466 40.1239 17.3628 39.5999 16.7749 39.2123C14.5823 37.7216 12.9192 35.5912 12.018 33.1214C11.1163 30.6506 11.0222 27.9633 11.7486 25.437C12.4751 22.9107 13.986 20.6714 16.0702 19.0347C18.1544 17.398 20.7068 16.4465 23.3688 16.3149L18.7067 42.7458ZM28.6377 43.5667V43.0667H28.1377H19.8619H19.3619V43.5667V45.2V45.7H19.8619H28.1377H28.6377V45.2V43.5667ZM28.1377 48.9667H28.6377V48.4667V46.8333V46.3333H28.1377H19.8619H19.3619V46.8333V48.4667V48.9667H19.8619H28.1377ZM28.4354 31C28.3343 31.8561 27.9798 32.6687 27.4099 33.3335C26.7296 34.127 25.7858 34.6588 24.7447 34.8334L24.3274 34.9034V35.3265V41.9333V42.4333H24.8274H28.2023H28.6265L28.6956 42.0148C28.8059 41.3469 29.0533 40.7078 29.4229 40.1369C29.7555 39.6233 30.1807 39.1744 30.6773 38.8124L30.8492 38.6957C32.9739 37.2534 34.5765 35.1774 35.4215 32.7704C36.2666 30.3632 36.3092 27.7522 35.5431 25.3193C34.7771 22.8865 33.2429 20.7606 31.1662 19.2515C29.0897 17.7424 26.5792 16.9289 24.0019 16.9289C21.4245 16.9289 18.9141 17.7424 16.8375 19.2515C14.7608 20.7606 13.2267 22.8865 12.4606 25.3193C11.6945 27.7522 11.7371 30.3632 12.5822 32.7704C13.4272 35.1774 15.0298 37.2534 17.1545 38.6957L17.1579 38.698C17.7273 39.0778 18.2115 39.5681 18.5813 40.1385C18.951 40.7089 19.1985 41.3475 19.309 42.015L19.3782 42.4333H19.8023H23.1722H23.6722V41.9333V35.3265V34.9034L23.2549 34.8334C22.2137 34.6588 21.27 34.127 20.5897 33.3335C20.0198 32.6687 19.6653 31.8561 19.5642 31H20.2231C20.3337 31.8162 20.7127 32.5785 21.3078 33.1658C22.0229 33.8714 22.9913 34.2667 23.9998 34.2667C25.0082 34.2667 25.9767 33.8714 26.6918 33.1658C27.2869 32.5785 27.6659 31.8162 27.7764 31H28.4354ZM35.7111 23.9163C36.3908 25.4807 36.7412 27.1648 36.7412 28.8665L23.369 16.3149C25.0941 16.2306 26.8185 16.4931 28.4374 17.0863C30.0563 17.6796 31.5358 18.5912 32.7861 19.7654C34.0364 20.9396 35.0314 22.3519 35.7111 23.9163Z" stroke="#122025"/>
<path d="M33.3523 27.6687C33.3829 27.9005 33.4045 28.1333 33.4173 28.3666H32.7612C32.7498 28.1725 32.7318 27.9788 32.7072 27.7859L33.3523 27.6687Z" stroke="#122025"/>
<path d="M21.9151 19.7951C22.5986 19.6431 23.2978 19.5664 23.9996 19.5667L23.9999 19.0667L24.0019 19.5667C25.9032 19.5589 27.7615 20.1214 29.3306 21.1787C30.7592 22.1414 31.8863 23.4727 32.5924 25.0219L31.9801 25.2578C31.1432 23.458 29.7058 21.9908 27.9026 21.1063C26.0985 20.2213 24.0465 19.9774 22.09 20.4057L21.9151 19.7951Z" stroke="#122025"/>
<path d="M3.81034 52.05V52.55V54.5H4.46552V47.3333H3.81034V50.9167V51.4167H3.31034H2.48276C2.13279 51.4167 1.79584 51.2795 1.54637 51.0334C1.29668 50.787 1.15517 50.4514 1.15517 50.1V45.2C1.15517 44.1989 1.55825 43.2401 2.27355 42.5342C2.98863 41.8286 3.95708 41.4333 4.96552 41.4333H13.9274H14.6388L14.3979 42.1027C14.1908 42.6782 13.8087 43.1752 13.3053 43.5264C12.802 43.8775 12.2018 44.0659 11.5868 44.0667H11.5862H9.93104C9.84203 44.0667 9.75798 44.1016 9.69704 44.1618C9.63633 44.2217 9.60345 44.3015 9.60345 44.3833V54.5H10.2586V45.2V44.7H10.7586H11.5856C12.5524 44.6989 13.4779 44.3193 14.1595 43.6467C14.8408 42.9744 15.2228 42.0645 15.2241 41.1167L3.81034 52.05ZM3.81034 52.05H3.31034M3.81034 52.05H3.31034M3.31034 52.05H2.48276C1.95477 52.05 1.44973 51.843 1.07838 51.4765C0.707261 51.1103 0.5 50.615 0.5 50.1V45.2003C0.501389 44.1521 0.882607 43.1379 1.57632 42.3411C2.27025 41.5442 3.23131 41.0172 4.28652 40.8572L5.15105 40.7262L4.59963 40.0476C4.09194 39.4228 3.81421 38.6478 3.81035 37.8489C3.81065 36.9011 4.19226 35.9908 4.87351 35.3186C5.55526 34.6458 6.48131 34.2667 7.44828 34.2667C8.41524 34.2667 9.34129 34.6458 10.023 35.3186C10.7044 35.9909 11.086 36.9012 11.0862 37.8491C11.0834 38.6239 10.8225 39.3771 10.3428 39.9926L9.71341 40.8M3.31034 52.05L9.71341 40.8M9.71341 40.8H10.7371M9.71341 40.8H10.7371M10.7371 40.8H14.8966C14.9856 40.8 15.0696 40.835 15.1305 40.8951C15.1911 40.9549 15.224 41.0345 15.2241 41.1161L10.7371 40.8ZM9.10286 35.3955C8.61253 35.0722 8.03674 34.9 7.44828 34.9C6.65933 34.9 5.90137 35.2092 5.3415 35.7617C4.78141 36.3144 4.46552 37.0655 4.46552 37.85C4.46552 38.435 4.64133 39.0062 4.96992 39.4915C5.29846 39.9767 5.76472 40.3539 6.30898 40.5763C6.85319 40.7988 7.45164 40.8569 8.02894 40.7436C8.60628 40.6302 9.13749 40.3504 9.55505 39.9383C9.97268 39.5262 10.2579 39.0003 10.3735 38.4268C10.4891 37.8532 10.4297 37.2588 10.2031 36.7189C9.9765 36.1791 9.59326 35.7188 9.10286 35.3955Z" stroke="#122025"/>
<path d="M43.4003 12.2809L42.8489 12.9595L43.7134 13.0906C44.7686 13.2505 45.7297 13.7775 46.4236 14.5745C47.1174 15.3713 47.4986 16.3856 47.4999 17.434V22.3333C47.4999 22.8483 47.2927 23.3436 46.9215 23.7099C46.5502 24.0763 46.0451 24.2833 45.5172 24.2833H44.6896H44.1896V24.7833V26.7333H43.5344V19.5667H44.1896V23.15V23.65H44.6896H45.5172C45.8671 23.65 46.2041 23.5129 46.4535 23.2667C46.7032 23.0203 46.8447 22.6847 46.8447 22.3333V17.4333C46.8447 16.4322 46.4417 15.4734 45.7264 14.7676C45.0113 14.0619 44.0428 13.6667 43.0344 13.6667H32.4173H31.706L31.9468 14.336C32.154 14.9115 32.536 15.4085 33.0394 15.7597C33.5427 16.1108 34.143 16.2993 34.7579 16.3H34.7585H36.7413V16.9333H34.7591C33.7924 16.9322 32.8668 16.5526 32.1852 15.88C31.5039 15.2077 31.1219 14.2976 31.1206 13.3498C31.1207 13.268 31.1535 13.1883 31.2142 13.1284C31.2751 13.0683 31.3592 13.0333 31.4482 13.0333H37.2628H38.2865L37.6572 12.2259C37.1774 11.6104 36.9166 10.8572 36.9137 10.0825C36.9139 9.13457 37.2956 8.2242 37.9769 7.55187C38.6586 6.87912 39.5847 6.5 40.5516 6.5C41.5186 6.5 42.4447 6.87912 43.1264 7.55187C43.8076 8.22412 44.1893 9.13437 44.1896 10.0821C44.1857 10.8811 43.908 11.6561 43.4003 12.2809ZM38.0733 8.44185C37.7447 8.92713 37.5689 9.49839 37.5689 10.0833C37.5689 10.8679 37.8848 11.6189 38.4449 12.1716C39.0047 12.7241 39.7627 13.0333 40.5516 13.0333C41.1401 13.0333 41.7159 12.8612 42.2062 12.5379C42.6966 12.2145 43.0799 11.7542 43.3064 11.2144C43.533 10.6746 43.5924 10.0801 43.4768 9.50656C43.3612 8.93304 43.076 8.40715 42.6584 7.99503C42.2408 7.58297 41.7096 7.30309 41.1323 7.18977C40.555 7.07646 39.9566 7.13456 39.4124 7.357C38.8681 7.57947 38.4018 7.95664 38.0733 8.44185Z" stroke="#122025"/>
<path d="M42.849 40.7262L43.4004 40.0476C43.9081 39.4228 44.1858 38.6478 44.1897 37.8488C44.1894 36.901 43.8077 35.9908 43.1265 35.3186C42.4448 34.6458 41.5187 34.2667 40.5517 34.2667C39.5848 34.2667 38.6587 34.6458 37.977 35.3186C37.2956 35.9909 36.914 36.9013 36.9138 37.8493C36.9167 38.624 37.1775 39.3771 37.6573 39.9926L38.2866 40.8H37.2629H33.1035C33.0145 40.8 32.9304 40.835 32.8695 40.8951C32.8088 40.955 32.7759 41.0347 32.7759 41.1164C32.7771 42.0643 33.1592 42.9744 33.8405 43.6467C34.5221 44.3193 35.4476 44.6989 36.4144 44.7H37.2414H37.7414V45.2V54.5H38.3966V44.3833C38.3966 44.3015 38.3637 44.2217 38.303 44.1618C38.242 44.1016 38.158 44.0667 38.069 44.0667H36.4138H36.4132C35.7982 44.0659 35.198 43.8775 34.6947 43.5264C34.1913 43.1752 33.8092 42.6782 33.6021 42.1027L33.3612 41.4333H34.0726H43.0345C44.0429 41.4333 45.0114 41.8286 45.7265 42.5342C46.4418 43.2401 46.8448 44.1989 46.8448 45.2V50.1C46.8448 50.4514 46.7033 50.787 46.4536 51.0334C46.2042 51.2796 45.8672 51.4167 45.5173 51.4167H44.6897H44.1897V50.9167V47.3333H43.5345V54.5H44.1897V52.55V52.05H44.6897H45.5173C46.0452 52.05 46.5503 51.843 46.9216 51.4765C47.2928 51.1103 47.5 50.615 47.5 50.1L47.5 45.2006L47.5 45.2M42.849 40.7262L44.3315 40.4762C45.2879 40.7315 46.1496 41.2649 46.8008 42.0128C47.5732 42.8999 47.9985 44.0304 48 45.2H47.5M42.849 40.7262L43.7135 40.8572C44.7687 41.0172 45.7298 41.5442 46.4237 42.3411C47.1173 43.1378 47.4985 44.1519 47.5 45.2M42.849 40.7262L47.5 45.2M38.0734 36.2085C37.7448 36.6938 37.569 37.2651 37.569 37.85C37.569 38.6346 37.8849 39.3856 38.445 39.9383C39.0048 40.4908 39.7628 40.8 40.5517 40.8C41.1402 40.8 41.716 40.6278 42.2063 40.3045C42.6967 39.9812 43.08 39.5209 43.3065 38.9811C43.5331 38.4412 43.5926 37.8468 43.4769 37.2732C43.3613 36.6997 43.0761 36.1738 42.6585 35.7617C42.2409 35.3497 41.7097 35.0698 41.1324 34.9564C40.5551 34.8431 39.9567 34.9012 39.4125 35.1237C38.8682 35.3461 38.4019 35.7233 38.0734 36.2085Z" stroke="#122025"/>
</svg>
